<svg
        fill="#6b6b6b"
        width="28px"
        height="28px"
        viewBox="0 0 1024 1024"
        xmlns="http://www.w3.org/2000/svg"
        class="icon"
        stroke="#6b6b6b"
      >
        <g id="SVGRepo_bgCarrier" stroke-width="0"></g>
        <g
          id="SVGRepo_tracerCarrier"
          stroke-linecap="round"
          stroke-linejoin="round"
        ></g>
        <g id="SVGRepo_iconCarrier">
          <path
            d="M880 112H144c-17.7 0-32 14.3-32 32v736c0 17.7 14.3 32 32 32h736c17.7 0 32-14.3 32-32V144c0-17.7-14.3-32-32-32zm-40 728H184V184h656v656zM492 400h184c4.4 0 8-3.6 8-8v-48c0-4.4-3.6-8-8-8H492c-4.4 0-8 3.6-8 8v48c0 4.4 3.6 8 8 8zm0 144h184c4.4 0 8-3.6 8-8v-48c0-4.4-3.6-8-8-8H492c-4.4 0-8 3.6-8 8v48c0 4.4 3.6 8 8 8zm0 144h184c4.4 0 8-3.6 8-8v-48c0-4.4-3.6-8-8-8H492c-4.4 0-8 3.6-8 8v48c0 4.4 3.6 8 8 8zM340 368a40 40 0 1 0 80 0 40 40 0 1 0-80 0zm0 144a40 40 0 1 0 80 0 40 40 0 1 0-80 0zm0 144a40 40 0 1 0 80 0 40 40 0 1 0-80 0z"
          ></path>
        </g>
      </svg>