<?xml version="1.0" encoding="utf-8"?>
<!-- Svg Vector Icons : http://www.onlinewebfonts.com/icon -->
<!DOCTYPE svg PUBLIC "-//W3C//DTD SVG 1.1//EN" "http://www.w3.org/Graphics/SVG/1.1/DTD/svg11.dtd">
<svg version="1.1" xmlns="http://www.w3.org/2000/svg" xmlns:xlink="http://www.w3.org/1999/xlink" x="0px" y="0px" viewBox="0 0 256 256" enable-background="new 0 0 256 256" xml:space="preserve">
<metadata> Svg Vector Icons : http://www.onlinewebfonts.com/icon </metadata>
<g><g><path fill="#000000" d="M230,88.8l-111.7-30c-1.8-0.5-3.7-0.7-5.6-0.7c-9.8,0-18.5,6.7-21.1,16.3L59.8,193.2c-1.5,5.6-0.8,11.5,2.1,16.6c0.2,0.3,0.4,0.5,0.5,0.8v0l0.1,0c2.9,4.6,7.3,8,12.6,9.4L186.8,250c1.8,0.5,3.7,0.7,5.6,0.7c9.8,0,18.5-6.7,21.1-16.3l31.8-118.8C248.4,103.9,241.5,91.9,230,88.8z M234,112.6l-26.2,97.8L76.6,175.3l26.2-97.8c1.2-4.5,5.3-7.7,9.8-7.7c0.9,0,1.7,0.1,2.6,0.3l111.7,30C232.3,101.5,235.5,107.1,234,112.6z"/><path fill="#000000" d="M126.8,125c1.3,0.4,2.7,0.5,4,0.5c7,0,13.2-4.7,15-11.5c1.1-4,0.5-8.2-1.6-11.8c-2.1-3.6-5.4-6.2-9.4-7.2c-1.3-0.4-2.7-0.5-4-0.5c-7,0-13.2,4.7-15,11.5C113.7,114.2,118.6,122.8,126.8,125z"/><path fill="#000000" d="M181.7,132.9c-0.6-1.9-2.1-3.4-4.1-3.9c-2-0.5-4,0-5.5,1.4l-25.4,23.9l-9.1-9.1c-1.8-1.8-4.7-2.2-6.9-1l-36,19.9c-2.1,1.2-3.3,3.4-3,5.8c0.3,2.4,2,4.3,4.3,4.9l97.2,26.1c0.5,0.1,1,0.2,1.5,0.2c0,0,0.1,0,0.1,0c3.2,0,5.8-2.6,5.8-5.8c0-0.9-0.2-1.8-0.6-2.6L181.7,132.9z"/><path fill="#000000" d="M26.7,58l111.9-40.7c0.7-0.3,1.5-0.4,2.3-0.4c3.8,0,7.5,3,9.1,7.4l12.3,33.9l13.7,3.7L161,20.3c-3.3-9-11.3-15-20.1-15c-2.2,0-4.3,0.4-6.3,1.1L22.7,47.1C12.3,50.9,7.3,63.2,11.5,74.7l34.4,94.4l5.3-19.6L22.4,70.7C20.4,65.3,22.3,59.6,26.7,58z"/></g></g>
</svg>