<svg
                fill="#000000"
                version="1.1"
                id="Layer_1"
                xmlns="http://www.w3.org/2000/svg"
                xmlns:xlink="http://www.w3.org/1999/xlink"
                viewBox="0 0 512 512"
                xml:space="preserve"
                width="64px"
                height="64px"
              >
                <g id="SVGRepo_bgCarrier" stroke-width="0"></g>
                <g
                  id="SVGRepo_tracerCarrier"
                  stroke-linecap="round"
                  stroke-linejoin="round"
                ></g>
                <g id="SVGRepo_iconCarrier">
                  <g>
                    <g>
                      <path
                        d="M320,256v192h192V256H320z M496,432H336V272h160V432z"
                      ></path>
                    </g>
                  </g>
                  <g>
                    <g>
                      <rect x="256" y="77.328" width="256" height="16"></rect>
                    </g>
                  </g>
                  <g>
                    <g>
                      <rect
                        x="256"
                        y="162.672"
                        width="213.328"
                        height="16"
                      ></rect>
                    </g>
                  </g>
                  <g>
                    <g><rect y="333.328" width="256" height="16"></rect></g>
                  </g>
                  <g>
                    <g>
                      <rect
                        x="42.672"
                        y="418.72"
                        width="213.328"
                        height="16"
                      ></rect>
                    </g>
                  </g>
                  <g>
                    <g>
                      <path
                        d="M0,64v192h192V64H0z M176,240H16V80h160V240z"
                      ></path>
                    </g>
                  </g>
                  <g>
                    <g>
                      <path
                        d="M96.992,107.968c-16.192,0-29.36,13.168-29.36,29.36c0.016,16.208,13.184,29.376,29.36,29.376 c16.208,0,29.376-13.168,29.376-29.376C126.368,121.136,113.2,107.968,96.992,107.968z M96.992,150.704 c-7.36,0-13.36-6-13.36-13.376c0.016-7.36,6.016-13.36,13.36-13.36c7.376,0,13.376,6,13.376,13.36 C110.368,144.704,104.368,150.704,96.992,150.704z"
                      ></path>
                    </g>
                  </g>
                  <g>
                    <g>
                      <path
                        d="M120.624,173.44l-23.616,17.808L73.392,173.44c-29.072,8.72-28.704,38.16-28.704,38.16h52.336h52.304 C149.328,211.6,149.696,182.16,120.624,173.44z"
                      ></path>
                    </g>
                  </g>
                  <g>
                    <g>
                      <path
                        d="M416.992,299.968c-16.192,0-29.36,13.168-29.36,29.36c0.016,16.208,13.184,29.376,29.36,29.376 c16.208,0,29.376-13.168,29.376-29.376C446.368,313.136,433.2,299.968,416.992,299.968z M416.992,342.704 c-7.36,0-13.36-6-13.36-13.376c0.016-7.36,6.016-13.36,13.36-13.36c7.376,0,13.376,6,13.376,13.36 C430.368,336.704,424.368,342.704,416.992,342.704z"
                      ></path>
                    </g>
                  </g>
                  <g>
                    <g>
                      <path
                        d="M440.624,365.456l-23.616,17.808l-23.616-17.808c-29.072,8.72-28.704,38.16-28.704,38.16h52.336h52.336 C469.328,403.6,469.696,374.176,440.624,365.456z"
                      ></path>
                    </g>
                  </g>
                </g>
              </svg>