<svg version="1.1" id="Layer_1" xmlns="http://www.w3.org/2000/svg" xmlns:xlink="http://www.w3.org/1999/xlink" viewBox="0 0 512 512" xml:space="preserve" width="64px" height="64px" fill="#000000"><g id="SVGRepo_bgCarrier" stroke-width="0"></g><g id="SVGRepo_tracerCarrier" stroke-linecap="round" stroke-linejoin="round"></g><g id="SVGRepo_iconCarrier"> <rect y="88.932" style="fill:#E0FAF2;" width="512" height="334.136"></rect> <g> <rect y="255.998" style="fill:#D1E9E2;" width="512" height="167.068"></rect> <rect x="256" y="88.932" style="fill:#D1E9E2;" width="256" height="167.435"></rect> </g> <rect x="256" y="255.63" style="fill:#C3D9D2;" width="256" height="167.435"></rect> <polygon style="fill:#F2FAF8;" points="0,423.063 196.502,263.445 0,88.932 "></polygon> <polygon style="fill:#E6F0EE;" points="512,423.063 315.498,263.445 512,88.932 "></polygon> <path style="fill:#D02D7F;" d="M286.737,208.137c-13.195,0-24.691,7.728-30.737,19.162c-6.045-11.434-17.54-19.162-30.736-19.162 c-23.159,0-38.504,16.823-38.504,37.574c0,20.75,11.698,33.309,38.504,52.247C248.686,314.507,256,326.119,256,326.119 s7.315-11.612,30.737-28.161c26.804-18.938,38.502-31.496,38.502-52.247S309.896,208.137,286.737,208.137z"></path> <path style="fill:#C42C78;" d="M286.737,208.137c-13.195,0-24.691,7.728-30.737,19.162c0,19.899,0,98.82,0,98.82 s7.315-11.612,30.737-28.161c26.804-18.938,38.502-31.496,38.502-52.247S309.896,208.137,286.737,208.137z"></path> </g></svg>