<svg version="1.1" id="Layer_1" xmlns="http://www.w3.org/2000/svg" xmlns:xlink="http://www.w3.org/1999/xlink" viewBox="0 0 512 512" xml:space="preserve" width="64px" height="64px" fill="#000000"><g id="SVGRepo_bgCarrier" stroke-width="0"></g><g id="SVGRepo_tracerCarrier" stroke-linecap="round" stroke-linejoin="round"></g><g id="SVGRepo_iconCarrier"> <rect x="7.604" y="90.468" style="fill:#E1E3FA;" width="496.796" height="348.244"></rect> <rect x="7.604" y="158.894" style="fill:#C6C5CB;" width="495.214" height="23.84"></rect> <g> <path style="fill:#C60024;" d="M400.286,259.887c0-8.69-5.825-15.733-14.515-15.733c-6.051,0-10.545,2.325-14.949,6.398 c-4.802-4.421-9.913-6.398-15.963-6.398c-8.69,0-13.467,7.044-13.467,15.733c0,4.113,1.193,6.435,2.159,8.391 c3.987,8.075,27.271,27.371,27.271,27.371s23.471-19.351,27.271-27.371C399.022,266.318,400.286,263.819,400.286,259.887z"></path> <rect x="7.604" y="90.468" style="fill:#C60024;" width="495.214" height="68.436"></rect> </g> <path d="M336.732,271.644c4.477,9.07,25.142,26.466,29.239,29.86l4.839,4.011l4.849-3.999c5.811-4.793,25.105-21.118,29.306-29.984 l0.107-0.226c1.052-2.217,2.816-5.928,2.816-11.419c0-13.305-9.509-23.337-22.119-23.337c-5.477,0-10.359,1.422-15.009,4.42 c-4.792-2.968-10.04-4.42-15.904-4.42c-12.407,0-21.071,9.596-21.071,23.337c0,5.801,1.736,9.311,2.884,11.634L336.732,271.644z M354.859,251.757c4.24,0,7.473,1.312,10.813,4.387l5.163,4.753l5.151-4.765c3.404-3.148,6.147-4.375,9.785-4.375 c4.774,0,6.911,4.083,6.911,8.129c0,2.062-0.593,3.311-1.344,4.893l-0.115,0.241c-1.615,3.407-11.043,12.585-20.388,20.664 c-9.308-8.084-18.75-17.299-20.466-20.774l-0.064-0.131c-0.788-1.594-1.309-2.646-1.309-4.893 C348.996,257.443,349.567,251.757,354.859,251.757z"></path> <path d="M480.774,82.862V65.685h-15.208v17.177h-18.289V65.685h-15.208v17.177h-18.29V65.685H398.57v17.177h-18.289V65.685h-15.208 v17.177h-18.29V65.685h-15.208v17.177h-18.289V65.685h-15.208v17.177h-18.29V65.685h-15.208v17.177H246.29V65.685h-15.208v17.177 h-18.29V65.685h-15.208v17.177h-18.289V65.685h-15.208v17.177h-18.29V65.685h-15.208v17.177h-18.289V65.685H97.091v17.177h-18.29 V65.685H63.593v17.177H45.304V65.685H30.096v17.177H0v83.641v279.813h512V82.862h-1.577H480.774z M15.208,98.07h14.888v17.177 h15.208V98.07h18.289v17.177h15.208V98.07h18.29v17.177h15.208V98.07h18.289v17.177h15.208V98.07h18.29v17.177h15.208V98.07h18.289 v17.177h15.208V98.07h18.29v17.177h15.208V98.07h18.289v17.177h15.208V98.07h18.29v17.177h15.208V98.07h18.289v17.177h15.208V98.07 h18.29v17.177h15.208V98.07h18.289v17.177h15.208V98.07h18.29v17.177h15.208V98.07h18.289v17.177h15.208V98.07h14.442v53.225H15.208 V98.07z M496.792,431.107H15.208V166.503h481.584V431.107z"></path> <rect x="38.831" y="200.574" width="51.545" height="15.208"></rect> <rect x="115.388" y="200.574" width="51.544" height="15.208"></rect> <rect x="191.946" y="200.574" width="51.544" height="15.208"></rect> <rect x="268.503" y="200.574" width="51.544" height="15.208"></rect> <rect x="345.07" y="200.574" width="51.544" height="15.208"></rect> <rect x="421.628" y="200.574" width="51.544" height="15.208"></rect> <rect x="38.831" y="262.298" width="51.545" height="15.208"></rect> <rect x="115.388" y="262.298" width="51.544" height="15.208"></rect> <rect x="191.946" y="262.298" width="51.544" height="15.208"></rect> <rect x="268.503" y="262.298" width="51.544" height="15.208"></rect> <rect x="421.628" y="262.298" width="51.544" height="15.208"></rect> <rect x="38.831" y="324.023" width="51.545" height="15.208"></rect> <rect x="115.388" y="324.023" width="51.544" height="15.208"></rect> <rect x="191.946" y="324.023" width="51.544" height="15.208"></rect> <rect x="268.503" y="324.023" width="51.544" height="15.208"></rect> <rect x="345.07" y="324.023" width="51.544" height="15.208"></rect> <rect x="421.628" y="324.023" width="51.544" height="15.208"></rect> <rect x="38.831" y="385.747" width="51.545" height="15.208"></rect> <rect x="115.388" y="385.747" width="51.544" height="15.208"></rect> <rect x="191.946" y="385.747" width="51.544" height="15.208"></rect> <rect x="268.503" y="385.747" width="51.544" height="15.208"></rect> <rect x="345.07" y="385.747" width="51.544" height="15.208"></rect> <rect x="421.628" y="385.747" width="51.544" height="15.208"></rect> </g></svg>